<svg width="85" height="24" viewBox="0 0 85 24" fill="none" xmlns="http://www.w3.org/2000/svg">
<path d="M3.57626 5.15093L3.02854 0.447023H0.644371L3.06076 23H6.86255L9.27894 0.447023H6.89477L6.34705 5.11871L4.96166 20.197L3.57626 5.15093ZM11.1353 23H13.5839V16.2663L17.9656 23H20.8008L16.1292 15.8475C18.8999 14.5265 20.8331 11.7879 20.8331 8.5661C20.8331 4.08772 17.1279 0.447023 12.6173 0.447023H11.1353V23ZM18.3845 8.5661C18.3845 11.4335 16.3225 13.8822 13.5839 14.3654V2.83119C16.3225 3.31447 18.3845 5.69865 18.3845 8.5661ZM34.7935 21.1313C31.6361 21.1313 28.9619 19.9715 27.2544 18.1028L44.6202 6.11749C42.5904 2.47679 38.6919 -0.00403646 34.2136 -0.00403646C27.6732 -0.00403646 22.3571 5.24759 22.3571 11.7235C22.3571 18.1994 27.3832 23.4511 34.7935 23.4511C38.7886 23.4511 42.1393 21.8079 44.4591 18.4572L42.526 17.0396C40.6573 19.8748 37.9831 21.1313 34.7935 21.1313ZM24.8058 11.7235C24.8058 6.53633 28.9619 2.3157 34.2136 2.3157C37.0488 2.3157 39.5941 3.57222 41.3017 5.53755L25.9012 16.1375C25.1924 14.8165 24.8058 13.3344 24.8058 11.7235ZM48.276 0.447023L45.6985 23H48.0826L48.3404 20.6158H51.9489L52.2388 23H54.623L52.0455 0.447023H48.276ZM51.6911 18.2961H48.6304L50.1446 3.15338L51.6911 18.2961ZM56.4426 23H63.8529V20.6803H58.8912V0.447023H56.4426V23ZM61.4043 18.3605H63.8529V0.447023H61.4043V18.3605ZM65.6463 2.76676H69.2548V23H71.7034V2.76676H75.3118V0.447023H65.6463V2.76676ZM79.1438 23H81.5924V19.5204L84.4277 0.447023H82.0435L81.5602 3.34669L80.3359 14.4621L79.015 3.34669L78.4995 0.447023H76.1153L79.1438 19.5204V23Z" fill="white"/>
</svg>
